<svg version="1.2" xmlns="http://www.w3.org/2000/svg" viewBox="0 0 18 19" width="18" height="19"><style>.a{opacity:.1;fill:#fff}</style><path class="a" d="m16.9 18.3q-3.1 0-6.1-1.3-3.1-1.4-5.6-3.9-2.5-2.5-3.8-5.6-1.4-3-1.4-6.1 0-0.5 0.3-0.8 0.3-0.3 0.8-0.3h4q0.4 0 0.6 0.3 0.3 0.2 0.4 0.5l0.6 3.5q0 0.4 0 0.7-0.1 0.3-0.3 0.5l-2.4 2.4q0.5 0.9 1.2 1.8 0.6 0.9 1.5 1.7 0.7 0.7 1.6 1.4 0.9 0.7 1.8 1.2l2.3-2.3q0.3-0.3 0.6-0.4 0.4-0.1 0.8 0l3.4 0.7q0.3 0.1 0.6 0.3 0.2 0.3 0.2 0.6v4.1q0 0.4-0.3 0.7-0.3 0.3-0.8 0.3zm-0.9-9q0-2.9-2-4.9-2.1-2.1-5-2.1v-2q1.9 0 3.5 0.7 1.7 0.7 2.9 2 1.2 1.2 1.9 2.8 0.7 1.6 0.7 3.5zm-4 0q0-1.2-0.9-2.1-0.8-0.9-2.1-0.9v-2q2.1 0 3.5 1.5 1.5 1.4 1.5 3.5zm-9-3l1.7-1.6-0.4-2.4h-2.3q0.1 1 0.4 2 0.2 1 0.6 2zm9 9q0.9 0.4 2 0.6 1 0.3 2 0.4v-2.2l-2.3-0.5z"/></svg>