<svg version="1.2" xmlns="http://www.w3.org/2000/svg" viewBox="0 0 15 18" width="15" height="18"><style>.a{fill:#2a434e}</style><path class="a" d="m7.6 17.2q-3.4-2.9-5-5.3-1.7-2.5-1.7-4.6 0-3.1 2-5 2-1.8 4.7-1.8 2.6 0 4.6 1.8 2 1.9 2 5 0 2.1-1.6 4.6-1.7 2.4-5 5.3zm0-2.2q2.5-2.4 3.7-4.3 1.3-1.9 1.3-3.4 0-2.2-1.5-3.7-1.4-1.4-3.5-1.4-2.1 0-3.6 1.4-1.4 1.5-1.4 3.7 0 1.5 1.2 3.4 1.2 1.9 3.8 4.3zm0-6.2q0.7 0 1.1-0.5 0.5-0.5 0.5-1.1 0-0.7-0.5-1.2-0.4-0.5-1.1-0.5-0.7 0-1.2 0.5-0.5 0.5-0.5 1.2 0 0.6 0.5 1.1 0.5 0.5 1.2 0.5z"/></svg>