<svg version="1.2" xmlns="http://www.w3.org/2000/svg" viewBox="0 0 15 16" width="15" height="16"><style>.a{fill:#2a434e}</style><path class="a" d="m2.3 16q-0.6 0-1-0.5-0.5-0.4-0.5-1v-10.5q0-0.6 0.5-1.1 0.4-0.4 1-0.4h0.8v-1.5h1.5v1.5h6v-1.5h1.5v1.5h0.7q0.6 0 1.1 0.4 0.4 0.5 0.4 1.1v10.5q0 0.6-0.4 1-0.5 0.5-1.1 0.5zm0-2.4q1-1 2.4-1.5 1.3-0.6 2.9-0.6 1.5 0 2.9 0.6 1.3 0.5 2.3 1.5v-9.6h-10.5zm5.3-3.7q-1.1 0-1.9-0.7-0.8-0.8-0.8-1.9 0-1.1 0.8-1.8 0.8-0.8 1.9-0.8 1 0 1.8 0.8 0.8 0.7 0.8 1.8 0 1.1-0.8 1.9-0.8 0.7-1.8 0.7zm0-1.5q0.4 0 0.8-0.3 0.3-0.3 0.3-0.8 0-0.4-0.3-0.8-0.4-0.3-0.8-0.3-0.5 0-0.8 0.3-0.4 0.4-0.4 0.8 0 0.5 0.4 0.8 0.3 0.3 0.8 0.3zm0 4.5q-1.1 0-2 0.4-1 0.3-1.8 1v0.1h7.5v-0.1q-0.8-0.7-1.7-1-1-0.4-2-0.4zm0 1.5h3.7-7.5z"/></svg>