<svg xmlns="http://www.w3.org/2000/svg" width="553.7" height="175.3" viewBox="0 0 553.7 175.3">
  <g id="Group_12" data-name="Group 12" transform="translate(-6.5 -7)">
    <rect id="Rectangle_1" data-name="Rectangle 1" width="553.7" height="175.3" transform="translate(6.5 7)" fill="#fff"/>
    <g id="Group_11" data-name="Group 11">
      <g id="Group_9" data-name="Group 9">
        <rect id="Rectangle_2" data-name="Rectangle 2" width="428.3" height="139.4" transform="translate(114 25)" fill="#c2bebe"/>
        <rect id="Rectangle_3" data-name="Rectangle 3" width="17.9" height="139.4" transform="translate(79.2 25)" fill="#be0038"/>
        <path id="Path_73" data-name="Path 73" d="M24.4,25H60.3V164.4H24.4Z" fill="#002369"/>
      </g>
      <g id="Group_10" data-name="Group 10">
        <path id="Path_74" data-name="Path 74" d="M141.9,68.1h23.3l7.6,31.2h.1l7.6-31.2h23.3v53.1H188.3V87.1h-.1L179,121.2H166.8l-9.2-34.1h-.1v34.1H142V68.1Z" fill="#002369"/>
        <path id="Path_75" data-name="Path 75" d="M210.7,68.1h44V81.7H227v6.6h25.1V101H227v6.6h28.4v13.6H210.6V68.1Z" fill="#002369"/>
        <path id="Path_76" data-name="Path 76" d="M274,81.7H259.1V68.1h46.1V81.7H290.3v39.5H274Z" fill="#002369"/>
        <path id="Path_77" data-name="Path 77" d="M309.8,68.1H341a20.7,20.7,0,0,1,6.6,1,15.275,15.275,0,0,1,5.5,2.9,13.385,13.385,0,0,1,3.8,4.7,15.259,15.259,0,0,1,1.4,6.6,18.406,18.406,0,0,1-.5,4.1,12.57,12.57,0,0,1-1.5,3.8,11.089,11.089,0,0,1-2.5,3.2,11.525,11.525,0,0,1-3.5,2.2,10.375,10.375,0,0,1,5.4,4.8,21.241,21.241,0,0,1,2.5,8.5c0,.6.1,1.5.1,2.5a18.166,18.166,0,0,0,.3,3.2,30.617,30.617,0,0,0,.5,3.2,6.692,6.692,0,0,0,.9,2.4H343.6a27.129,27.129,0,0,1-.9-4.1c-.2-1.4-.3-2.7-.4-4.1-.1-1.2-.2-2.5-.4-3.7a10.645,10.645,0,0,0-1-3.3,6.111,6.111,0,0,0-2.1-2.4,6.89,6.89,0,0,0-3.8-.9h-8.7v18.5H309.9V68.1Zm16.3,23.2h8.6a20.084,20.084,0,0,0,2.4-.1,5.64,5.64,0,0,0,2.3-.7,4.363,4.363,0,0,0,1.7-1.6,4.654,4.654,0,0,0,.7-2.8,4.781,4.781,0,0,0-1.7-3.9c-1.1-.9-3.3-1.4-6.4-1.4H326V91.3Z" fill="#002369"/>
        <path id="Path_78" data-name="Path 78" d="M378.1,68.1h16l19.3,53.1h-17l-2.2-7.6H377.3l-2.4,7.6H358.5ZM391,102.3l-4.8-16.4h-.1L381,102.3Z" fill="#002369"/>
        <path id="Path_79" data-name="Path 79" d="M415.7,68.1h16.7l15.5,28.4h.1V68.1h15.5v53.1H447.6l-16.3-29h-.1v29H415.7V68.1Z" fill="#002369"/>
        <path id="Path_80" data-name="Path 80" d="M483.6,103.4a9.509,9.509,0,0,0,.6,3.5,4.936,4.936,0,0,0,3.2,3.1,14.69,14.69,0,0,0,4.6.7,19.88,19.88,0,0,0,2.2-.2,8.084,8.084,0,0,0,2.2-.7,4.978,4.978,0,0,0,1.7-1.5,4.267,4.267,0,0,0,.7-2.4,2.86,2.86,0,0,0-.5-1.7,3.806,3.806,0,0,0-1.8-1.3,18.78,18.78,0,0,0-3.5-1.3c-1.5-.5-3.4-1-5.7-1.7-2.1-.6-4.2-1.2-6.4-1.9a23.864,23.864,0,0,1-5.8-2.7,14.018,14.018,0,0,1-4.2-4.2,11.958,11.958,0,0,1-1.6-6.6,16.181,16.181,0,0,1,1.8-7.9,16.91,16.91,0,0,1,4.8-5.5,22.4,22.4,0,0,1,6.8-3.2,30.25,30.25,0,0,1,8-1,37.7,37.7,0,0,1,8.3.9,21.984,21.984,0,0,1,7,2.9,15.9,15.9,0,0,1,4.9,5.4,17.919,17.919,0,0,1,2,8.1H497.4a4.937,4.937,0,0,0-.3-2.5,4.363,4.363,0,0,0-1.6-1.7,6.715,6.715,0,0,0-2.3-1,10.679,10.679,0,0,0-2.5-.3,13.434,13.434,0,0,0-1.9.1,10.548,10.548,0,0,0-1.9.5,3.269,3.269,0,0,0-1.5,1.1,2.792,2.792,0,0,0-.6,1.8,2.683,2.683,0,0,0,1.5,2.3,12.673,12.673,0,0,0,3.5,1.6,42.914,42.914,0,0,0,4.9,1.3c1.8.4,3.7.9,5.5,1.4a50.951,50.951,0,0,1,5.5,1.9,16.631,16.631,0,0,1,4.8,2.9,14.392,14.392,0,0,1,3.4,4.3,14.556,14.556,0,0,1,1.3,6.2,15.616,15.616,0,0,1-2.2,8.7,16.1,16.1,0,0,1-5.7,5.6,24.937,24.937,0,0,1-7.9,3,44.055,44.055,0,0,1-8.9.9c-1,0-2.3-.1-3.8-.2a23.714,23.714,0,0,1-4.9-1,37,37,0,0,1-5.2-2,17.065,17.065,0,0,1-4.7-3.4,17.355,17.355,0,0,1-3.4-5.2,17.978,17.978,0,0,1-1.3-7.3h16.4Z" fill="#002369"/>
      </g>
    </g>
  </g>
</svg>
